<?xml version="1.0" encoding="UTF-8"?>
<svg width="104px" height="105px" viewBox="0 0 104 105" version="1.1" xmlns="http://www.w3.org/2000/svg" xmlns:xlink="http://www.w3.org/1999/xlink">
    <!-- Generator: Sketch 57.1 (83088) - https://sketch.com -->
    <title>pencil-ruler</title>
    <desc>Created with Sketch.</desc>
    <defs>
        <linearGradient x1="20.7981419%" y1="50%" x2="100%" y2="50%" id="linearGradient-1">
            <stop stop-color="#642DBB" offset="0%"></stop>
            <stop stop-color="#9182B6" offset="100%"></stop>
            <stop stop-color="#27067D" offset="100%"></stop>
        </linearGradient>
    </defs>
    <g id="Symbols" stroke="none" stroke-width="1" fill="none" fill-rule="evenodd">
        <g id="graphics" fill="url(#linearGradient-1)" fill-rule="nonzero">
            <g id="pencil-ruler">
                <path d="M22.2347618,50.0483536 L49.5709208,22.453572 L40.6091781,13.4056991 L28.080613,26.0546746 C27.7788674,26.359911 27.369261,26.5314409 26.9421142,26.5314409 C26.5149674,26.5314409 26.1053611,26.359911 25.8036154,26.0546746 L23.5266178,23.755793 C22.8969396,23.120063 22.8969396,22.0905907 23.5266178,21.4569114 L36.0551828,8.80793603 L29.2221587,1.90718987 C26.7054771,-0.633679216 22.6267873,-0.633679216 20.1101057,1.90718987 L1.88803099,20.3043946 C-0.626619389,22.8452636 -0.628650609,26.9631532 1.88803099,29.5040223 L22.2347618,50.0483536 Z M101.141566,26.0956894 C104.952134,22.2484978 104.950103,16.012192 101.141566,12.1650004 L91.9502951,2.88539371 C88.1397263,-0.961797904 81.9607551,-0.961797904 78.1481551,2.88539371 L68.8004806,12.3208567 L91.7938911,35.5352539 L101.141566,26.0956894 Z M64.2038297,16.9637362 L3.87659538,77.8625646 L0.0660266348,99.8957345 C-0.447872028,102.867259 2.11552763,105.455296 5.06079664,104.932356 L26.8862557,101.068759 L87.1972403,40.1760826 L64.2038297,16.9637362 Z M102.112489,75.4980593 L95.2794647,68.5993639 L82.7508997,81.2483393 C82.1212214,81.8840693 81.101549,81.8840693 80.473902,81.2483393 L78.1969044,78.9494578 C77.5692574,78.3137278 77.5692574,77.2842554 78.1969044,76.6505762 L90.7254694,64.0016008 L81.7596643,54.9496265 L54.4235054,82.5444082 L74.7783611,103.092841 C77.2950427,105.63371 81.3737325,105.63371 83.8904141,103.092841 L102.112489,84.6976871 C104.62917,82.156818 104.62917,78.0389284 102.112489,75.4980593 Z" id="Shape"></path>
            </g>
        </g>
    </g>
</svg>