<svg xmlns="http://www.w3.org/2000/svg" viewBox="0 0 1366 750">
  <defs>
    <style>
      .cls-1 {
        fill: #402655;
      }

      .cls-2 {
        fill: #55486b;
      }

      .cls-3 {
        fill: #b48cc0;
      }

      .cls-4 {
        fill: none;
        stroke: #fff;
        stroke-linecap: round;
        stroke-miterlimit: 10;
        stroke-width: 3px;
      }

      .cls-5 {
        fill: #8f84ac;
      }

      .cls-6 {
        fill: #fff;
      }

      .cls-7 {
        fill: #853795;
      }

      .cls-8 {
        fill: #d99d6a;
      }

      .cls-9 {
        fill: #8d6526;
      }

      .cls-10 {
        fill: #9873a2;
      }

      .cls-11 {
        fill: #786482;
      }

      .cls-12 {
        fill: #e72c8c;
      }

      .cls-13 {
        fill: #e6ab7e;
      }

      .cls-14 {
        fill: #363374;
      }

      .cls-15 {
        fill: #644c22;
      }

      .cls-16 {
        fill: #7e688a;
      }

      .cls-17 {
        fill: #4b223a;
      }

      .cls-18 {
        fill: #f0c4a5;
      }

      .cls-19 {
        fill: #666975;
      }

      .cls-20 {
        fill: #d5a87b;
      }

      .cls-21 {
        fill: #5864ae;
      }

      .cls-22 {
        fill: #231f20;
      }

      .cls-23 {
        fill: #231c2a;
      }

      .cls-24 {
        fill: #485c8e;
      }

      .cls-25 {
        fill: #566ba8;
      }

      .cls-26 {
        fill: #4f61ac;
      }

      .cls-27 {
        fill: #f0b56b;
      }
    </style>
  </defs>
  <title>splash-image</title>
  <g id="girl1">
    <g>
      <path class="cls-1" d="M585.06,51.4s236.44-9.18,244.49-9.3-41.11,171.63-43.48,175.41-220.42,6.09-220.42,6.09S545.43,52.94,585.06,51.4Z"/>
      <path class="cls-2" d="M594.19,58.53S811.29,50.1,818.68,50s-37.74,157.59-39.92,161.07-202.39,5.59-202.39,5.59S557.8,59.94,594.19,58.53Z"/>
      <path class="cls-3" d="M642.29,135.67c1.49,6.64,99.8,2.85,110.27,2.4s16.87-70.76,17.69-72.58-122,3.37-122,3.37"/>
      <path class="cls-3" d="M715,74s.53-.08.09,3.24c0,0-7.56,56.94-6.07,63.58"/>
      <path class="cls-3" d="M718.26,199.33c.64,3.79,41,2.07,45.26,1.86s6.61-40.31,6.94-41.35-50,1.39-50,1.39"/>
      <line class="cls-4" x1="654.59" y1="75.71" x2="759.53" y2="72.81"/>
      <line class="cls-4" x1="654.81" y1="83.92" x2="756.15" y2="81.11"/>
      <line class="cls-4" x1="651.72" y1="92.21" x2="756.66" y2="89.31"/>
      <line class="cls-4" x1="653.49" y1="100.14" x2="691.2" y2="99.1"/>
      <line class="cls-4" x1="653.66" y1="106.29" x2="691.37" y2="105.25"/>
      <line class="cls-4" x1="649.58" y1="115.95" x2="708.17" y2="114.33"/>
      <path class="cls-5" d="M711.21,86.62s-12.38,28.79-11.62,56.08c0,0,80.33-1.66,82.37-2.28s1.45-41,8.76-56C790.72,84.42,715.57,84.79,711.21,86.62Z"/>
      <path class="cls-5" d="M647.42,179.83s16.53,8.75,32.5,9c0,0,1.07-51.92.76-53.25s-23.95-2-32.53-7.12C648.15,128.43,646.46,177,647.42,179.83Z"/>
      <path class="cls-6" d="M716.84,91s-10.33,24-9.7,46.78c0,0,67-1.38,68.72-1.9s1.2-34.2,7.3-46.71C783.16,89.21,720.48,89.52,716.84,91Z"/>
      <path class="cls-6" d="M651.67,135s-1.26,31.51-.43,35.75,23.64,7,23.64,7l1.08-38S655.36,137,651.67,135Z"/>
      <path class="cls-7" d="M657.48,140.86s-.81,9-.43,10.16,11.78,1.83,11.78,1.83l.77-10.79S659.32,141.41,657.48,140.86Z"/>
      <path class="cls-7" d="M654.67,154.83s-1.42,9-.83,10.17,18.41,1.65,18.41,1.65l1.37-10.8S657.53,155.35,654.67,154.83Z"/>
      <path class="cls-7" d="M719.75,93.61s-.82,9-.43,10.16,11.77,1.83,11.77,1.83l.77-10.79S721.58,94.16,719.75,93.61Z"/>
      <path class="cls-7" d="M740,93.05s-2.87,9-1.8,10.2,34.34,1.21,34.34,1.21l2.81-10.85S745.29,93.5,740,93.05Z"/>
      <path class="cls-7" d="M716.86,107.63s-4.36,16.49-2.7,18.66,53,2.49,53,2.49l4.27-19.84S725.09,108.5,716.86,107.63Z"/>
      <g>
        <path class="cls-8" d="M628,75.74s10.5,8.07,10.87,21.43-5.36,17.69.54,19.61,5.53,3.61,4.87,9.9S642,151,637.93,154.84s-22.78,6.89-26.64,3.24-2.72,22.63-1,25.51-18-.32-21.36-2.33-11.25-89.51-2.59-93.5S621.85,68.85,628,75.74Z"/>
        <path class="cls-8" d="M723,171.86s-.2-7.29-.53-19.12,3.07-28.93,5.59-30.8,7.36-3.81,6.94-.19-4.07,10.93-3.75,13.24,2.09,1,9.34,2.57,12.19-.32,12.07,4.57.76,12.52-1.73,15.67-3.19,5.57-5.15,9.23-3.61,8.85-3,11.41S723,171.86,723,171.86Z"/>
        <path class="cls-8" d="M725.92,163.36s-9-12.88-9.7-15-5.26-5.83-4.38-7.28,4.38-2.39,6-1.48.92.13,5.78,4.86"/>
        <path class="cls-7" d="M588.43,179.55s11.74-.29,29.51,4.9,31.12,13.12,43.6,27S677.2,240.34,684,235.32s26.63-49.47,30.16-59.25,33.86-.21,34,4.78-32,105.42-46.07,108.92-41.24-4-50.21-15.89c0,0-36.22,22.08-17.11,47.13s20.54,26.74,20.54,26.74-110.06,7.19-113.86,6.95-20.11-102.1-9.9-120.35S580,176.32,588.43,179.55Z"/>
        <path class="cls-9" d="M627.08,67.28s22.07,23.18-4.86,34.22c-17.47,7.15-18.49-2.38-24.76,1.94s-6.46,8.22-3.33,16.29,4.91,9.77,8.36,8.51,8.29,27-5.18,43.67S573.58,215,574.38,244s18.29,38.36,18.29,38.36L561.5,275c-14.45-1.69-15.68,1.11-24-1.49-20.46-6.35-44.06-46.76-41.15-77.29,2.46-25.89,14.47-27.1,21-43.53s10.07-46.79,11.62-62.41C528.9,90.24,531.16,34,627.08,67.28Z"/>
      </g>
    </g>
  </g>
  <g id="boy2">
    <g>
      <path class="cls-10" d="M390.94,644.4c36.52,26.12,40.5,29.38,40.5,29.38s139.92-15.29,163.81-21.84-28-53.48-28-53.48-178,30.54-186.22,29.45S386.07,640.92,390.94,644.4Z"/>
      <polygon class="cls-11" points="457.5 629.56 474.18 657.26 562.26 643.39 537.83 608.55 454.28 624.03 457.5 629.56"/>
      <g>
        <path class="cls-12" d="M427.82,644.39s-16.24-.3-15.06-1.84,1-9.1,3.89-9.65,7.28-1.54,11.85-1,11.68,3.58,11.85,6.19S429.26,644.61,427.82,644.39Z"/>
        <path class="cls-13" d="M451.9,632.05s-3.92-8.79-9-8.79-21.29,1.41-22.14,4.39-2.84,10.36,0,10.36,6,4.54,9.92,4.54"/>
        <line class="cls-4" x1="573.01" y1="507.26" x2="466.2" y2="516.51"/>
        <line class="cls-4" x1="573.73" y1="515.6" x2="470.59" y2="524.54"/>
        <line class="cls-4" x1="577.83" y1="523.66" x2="471.02" y2="532.91"/>
        <path class="cls-1" d="M572.74,410.71s-240.93,18.17-249.12,19S362,601.62,364.83,605.18s247.62-22,247.62-22S613.13,407.66,572.74,410.71Z"/>
        <path class="cls-2" d="M564.31,419s-221.23,16.68-228.75,17.42,35,158.45,37.61,161.72,227.6-20.8,227.6-20.8S601.39,416.21,564.31,419Z"/>
        <line class="cls-4" x1="576.96" y1="531.91" x2="538.58" y2="535.24"/>
        <line class="cls-4" x1="577.5" y1="538.17" x2="539.12" y2="541.5"/>
        <line class="cls-4" x1="582.76" y1="547.49" x2="523.13" y2="552.66"/>
        <line class="cls-4" x1="438.06" y1="560.03" x2="400.4" y2="563.29"/>
        <line class="cls-4" x1="477.74" y1="501.74" x2="374.61" y2="510.68"/>
        <line class="cls-4" x1="481.85" y1="509.8" x2="375.04" y2="519.05"/>
        <line class="cls-4" x1="450.27" y1="565.34" x2="412.61" y2="568.6"/>
        <line class="cls-4" x1="483.32" y1="491.94" x2="380.18" y2="500.87"/>
        <line class="cls-4" x1="469.61" y1="482.83" x2="366.47" y2="491.77"/>
        <line class="cls-4" x1="463.6" y1="474.06" x2="360.46" y2="482.99"/>
        <line class="cls-4" x1="466.43" y1="466.46" x2="363.29" y2="475.4"/>
        <line class="cls-4" x1="463.6" y1="460.02" x2="360.46" y2="468.95"/>
        <line class="cls-4" x1="459.96" y1="453.4" x2="356.82" y2="462.33"/>
        <line class="cls-4" x1="505.04" y1="443.46" x2="398.23" y2="452.71"/>
        <path class="cls-3" d="M523.52,491.85c-.83,5.82-101,13.58-111.67,14.37s-24.34-58.37-25.36-59.83,124.14-10.75,124.14-10.75"/>
        <path class="cls-10" d="M462.11,575.5c-.26,4.85-51.1,8.48-56.52,8.84s-14.08-49.63-14.65-50.88,63-5.46,63-5.46"/>
        <line class="cls-4" x1="503.02" y1="441.57" x2="399.89" y2="450.51"/>
        <line class="cls-4" x1="508.41" y1="449.77" x2="401.6" y2="459.03"/>
        <line class="cls-4" x1="508.99" y1="468.12" x2="470.61" y2="471.44"/>
        <line class="cls-4" x1="509.53" y1="474.37" x2="471.15" y2="477.7"/>
        <line class="cls-4" x1="514.79" y1="483.69" x2="455.16" y2="488.86"/>
        <path class="cls-13" d="M534.58,440.18s-11.42,9.54-10.24,23.14,8.46,17.24,1.73,20S520,487.66,521.52,494s5.59,24.34,10.86,27.74,27.71,4,31.82-.19,5.94,22.6,4.22,25.74,21.15-2.67,24.92-5.15,2.45-92.24-8.25-95.16S541,432.38,534.58,440.18Z"/>
        <path class="cls-14" d="M590.75,529.49s-12,1.07-29.38,8.4-30,16.93-41.1,32.41-14.24,20.45-20,26.87c-10,11.14-35.24,47.71-40,38.2s-34.38,3.73-33.94,8.8,47.18,8.44,61.87,10.35,41.37-8.9,49.09-22c0,0,39.32,18.2,22.84,45.83s-17.73,29.51-17.73,29.51,112.49-5.5,116.33-6.18S645.06,605.64,633.88,572C627.15,551.68,598.88,525.24,590.75,529.49Z"/>
        <path class="cls-15" d="M528.66,450.25s-20.42-8.64-20.34-17.9c0,0,14.47-.76,20.34-3S544,415.15,567,419s38.33,15.69,40.29,24.45,12.12,27.26,8.21,37.24-10.81,27.83-14.72,31.5-5.52,5.69-5.52,6.74-19.29-.47-19.29-.47-7-12-7-17.44,1.18-15.68,3.52-16.44.39,3.43,4.31,3.05,12.42-11.27,8.51-18-15.95-6.62-16.73-1.74S551.34,452.54,547,451,534.8,453.3,528.66,450.25Z"/>
        <line class="cls-4" x1="450.27" y1="533.58" x2="425.96" y2="535.68"/>
        <line class="cls-4" x1="450.81" y1="539.84" x2="426.5" y2="541.94"/>
        <line class="cls-4" x1="454.45" y1="549.3" x2="416.68" y2="552.57"/>
        <path class="cls-16" d="M496.3,580.74c-.16,3-32.07,5.33-35.47,5.55s-8.84-31.15-9.2-31.93,39.53-3.43,39.53-3.43"/>
        <line class="cls-4" x1="443.41" y1="560.43" x2="405.63" y2="563.7"/>
        <line class="cls-4" x1="489.84" y1="462.82" x2="451.45" y2="466.15"/>
      </g>
    </g>
  </g>
  <g id="girl3">
    <g>
      <path class="cls-10" d="M969.77,516.43C932.09,542.31,928,545.56,928,545.56s-142.16-18.25-166.36-25.38,29.52-53.9,29.52-53.9,180.65,34.5,189,33.54S974.79,513,969.77,516.43Z"/>
      <polygon class="cls-11" points="902.29 500.04 884.78 527.92 795.38 512.11 820.91 477.11 905.68 494.48 902.29 500.04"/>
      <path class="cls-17" d="M932.22,515.71s16.55,0,15.37-1.59-.82-9.28-3.78-9.89-7.38-1.71-12-1.28-12,3.42-12.18,6.07S930.76,515.91,932.22,515.71Z"/>
      <path class="cls-18" d="M908,502.68s4.16-8.87,9.38-8.77,21.65,1.84,22.46,4.89,2.69,10.6-.2,10.55-6.15,4.5-10.19,4.43"/>
      <line class="cls-4" x1="787.04" y1="373.31" x2="895.6" y2="384.78"/>
      <line class="cls-4" x1="786.14" y1="381.8" x2="890.98" y2="392.87"/>
      <line class="cls-4" x1="781.81" y1="389.92" x2="890.38" y2="401.39"/>
      <path class="cls-1" d="M789.16,275s244.94,23.11,253.26,24.09S1000.07,473.42,997.1,477s-251.67-27.16-251.67-27.16S748.1,271.15,789.16,275Z"/>
      <path class="cls-2" d="M797.58,283.63s224.92,21.22,232.55,22.12S991.47,466.4,988.75,469.68s-231.32-25.54-231.32-25.54S759.88,280.07,797.58,283.63Z"/>
      <path class="cls-19" d="M809.24,430.86s155.46,17.12,164.93,17,15.89-36.12,15.89-36.12-207.58-21-216.76-21.17-25.56,31.71-2.94,36.25S809.24,430.86,809.24,430.86Z"/>
      <path class="cls-19" d="M1018.38,312s-15.44,64.42-21.09,74.85S823.6,370.08,800.7,367.3s4.59-78.73,4.59-78.73S1005.35,308.57,1018.38,312Z"/>
      <path class="cls-18" d="M827.45,305.75s11.44,9.94,10,23.76-8.94,17.4-2.14,20.3,6.11,4.57,4.42,10.94-6.16,24.68-11.59,28-28.28,3.56-32.39-.8-6.48,22.89-4.79,26.13-21.48-3.13-25.27-5.72-.72-94,10.22-96.73S821.1,297.7,827.45,305.75Z"/>
      <path class="cls-12" d="M768.55,395.61s12.15,1.32,29.75,9.12,30.27,17.81,41.22,33.77,14.11,21.1,19.83,27.75c9.91,11.53,35,49.24,39.95,39.65s34.93,4.45,34.38,9.62-48.19,7.68-63.18,9.34-42-9.85-49.56-23.29c0,0-40.38,17.77-24.13,46.22s17.48,30.38,17.48,30.38S699.87,570.42,696,569.65s12.86-117,25.9-134.42S760.36,391.13,768.55,395.61Z"/>
      <path class="cls-20" d="M970.63,312.1s1.67,3,1.17,5.21-1.93,3.25-1.06,3.53.7-.37.86.29-1.48,3.85-3,4.24-6.89-1.74-7.17-3.47a61.18,61.18,0,0,0-2.61-7.24l9.14-3.74Z"/>
      <path class="cls-20" d="M953.27,327.83s-.34.34-.11,1.35-5-.61-5-.61a9.56,9.56,0,0,1,.24-2.92c.36-.93,4.92,1.73,4.88,2"/>
      <path class="cls-21" d="M954.64,377.87a4.48,4.48,0,0,0-.8,1.75c-.07.77,7.25,4.46,7.25,4.46s1.62-.45,1.52-1.61-2.56-4-3.24-4.37-1,.14-1.63-2.29-3.1,2.06-3.1,2.06"/>
      <path class="cls-20" d="M979.79,323.73a2.66,2.66,0,0,1,.52-2.1c.79-1,3.52-.84,3.56.29s.47,2.92-.86,2.81a2.37,2.37,0,0,0-2,1l-1.74-1.15Z"/>
      <path class="cls-20" d="M948.52,339.52a2.66,2.66,0,0,0-1.2,1.81c-.2,1.24,1.76,3.15,2.62,2.43s2.47-1.63,1.49-2.54a2.35,2.35,0,0,1-.65-2.17l-2-.51Z"/>
      <path class="cls-21" d="M946.49,352.91a4.42,4.42,0,0,0-1.9-.31c-.76.13-2.44,8.14-2.44,8.14s.85,1.46,1.94,1.07,3.17-3.5,3.4-4.27-.39-.89,1.79-2.16-2.79-2.47-2.79-2.47"/>
      <line class="cls-4" x1="977.92" y1="420.33" x2="813.25" y2="402.92"/>
      <line class="cls-4" x1="974.12" y1="432.05" x2="832.98" y2="417.13"/>
      <line class="cls-4" x1="973.06" y1="442.02" x2="853.33" y2="429.36"/>
      <path class="cls-22" d="M969.83,343.7s4.79,11.15,4.37,12.3a12.45,12.45,0,0,1-3.41,4.16c-1.06.66-22.57-1-23.85-1.41l.49-6s12.94,1.75,14.1,1.49a3.56,3.56,0,0,0,2.4-2.45c.45-1.18-.52-9-.52-9l1.34-2.17s4.38,1.42,5.08,3.09"/>
      <path class="cls-23" d="M958.24,349.9s5.85,8.65,9.58,12.09c0,0-3.9,3-5.49,5.76-1,1.83-6.79,6.72-4.7,8.77s3.12,2.16,3.12,2.16l3.73-3.29,9.5-11.15a3.52,3.52,0,0,0,.48-3.68l-5.87-12.81a1.94,1.94,0,0,0-.73-.87l-8-5.11S956.06,345.3,958.24,349.9Z"/>
      <path class="cls-24" d="M952.67,331.08s8.5.14,9.83-.63,2.94-2.61,2.38-3.56-.78-2.28-2.61-2.55c-1.48-.22-9.31,1.84-11.95,2.48-.63.15-.9,1-1.06,1.6-.79,3.06-2.19,9.63-1.44,11.63,0,0,2.32.4,3-.06S953.29,332.57,952.67,331.08Z"/>
      <path class="cls-25" d="M959.12,325.54s3,9.48,2.24,12a20.16,20.16,0,0,1-3,5.49l12.46,2.77s2.32-14.32.36-15.58-6.77-6.53-8.57-6a37.69,37.69,0,0,0-4,1.51"/>
      <path class="cls-15" d="M971,314.78s3.75-.76,4-2.27a17.32,17.32,0,0,1-3.38-1.14c-.93-.56-2.19-2.8-6.22-2.91s-7,1.33-7.62,2.7-2.89,4-2.53,5.8,2.39,4.66,2.94,5.38.8.84,1,.9a4.08,4.08,0,0,0,2.86,0,4.42,4.42,0,0,0,.56-1.49c.16-.88.28-2.59-.1-2.79s-.17.55-.83.36-1.77-2.23-.9-3.2,2.5-.74,2.49.07,3.82-1.76,4.6-1.87S969.83,315.08,971,314.78Z"/>
      <path class="cls-26" d="M972.48,330s-6.88-5-8.42-5.11-3.9.46-4,1.56-.66,2.32.69,3.59c1.09,1,8.69,3.81,11.22,4.79.6.24,1.3-.28,1.78-.7,2.4-2.06,7.31-6.66,7.84-8.72,0,0-1.68-1.66-2.51-1.67S972.83,328.45,972.48,330Z"/>
      <path class="cls-20" d="M914.69,308s1.29,3.2.53,5.32-2.32,3-1.49,3.37.74-.28.82.39-1.95,3.64-3.51,3.85-6.62-2.58-6.69-4.33a62,62,0,0,0-1.71-7.51l9.54-2.58Z"/>
      <path class="cls-20" d="M908.37,319.84s-.39.3-.28,1.33-4.86-1.22-4.86-1.22a9.56,9.56,0,0,1,.59-2.87c.47-.88,4.67,2.32,4.61,2.54"/>
      <path class="cls-21" d="M917.55,376.42a4.49,4.49,0,0,0-.15,1.92c.2.75,8.33,1.72,8.33,1.72s1.37-1,.89-2-3.76-2.85-4.55-3-.86.47-2.31-1.59-2.21,3-2.21,3"/>
      <path class="cls-20" d="M922.36,320.67a2.63,2.63,0,0,1,.77-2c.9-.89,3.59-.4,3.5.72s.11,3-1.2,2.69a2.35,2.35,0,0,0-2.15.73l-1.58-1.36Z"/>
      <path class="cls-20" d="M889.39,332.51a2.64,2.64,0,0,0-1.41,1.65c-.35,1.21,1.35,3.35,2.3,2.73s2.65-1.31,1.79-2.33a2.37,2.37,0,0,1-.38-2.24l-2-.75Z"/>
      <path class="cls-21" d="M885.73,345.56a4.42,4.42,0,0,0-1.84-.55c-.77,0-3.42,7.78-3.42,7.78s.66,1.55,1.8,1.3,3.56-3.08,3.89-3.82-.28-.94,2-1.93-2.47-2.78-2.47-2.78"/>
      <path class="cls-22" d="M910,339.27s3.39,11.65,2.83,12.74a12.46,12.46,0,0,1-3.9,3.71c-1.13.53-22.28-3.71-23.49-4.32l1.22-5.91s12.63,3.32,13.82,3.21a3.62,3.62,0,0,0,2.68-2.15c.59-1.11.58-9,.58-9l1.6-2s4.16,1.95,4.66,3.69"/>
      <path class="cls-23" d="M897.77,344s4.74,9.3,8,13.18c0,0,1.36,3.79,2.1,5.76s5.38,8.33,7.21,10.63,2,3.1,2,3.1l3.86-2-9.2-19.6-3.44-11.93a1.87,1.87,0,0,0-.62-1l-7.27-6.05S896.17,339.18,897.77,344Z"/>
      <path class="cls-24" d="M894.54,324.64s8.42,1.18,9.83.58,3.24-2.23,2.81-3.24-.5-2.36-2.29-2.86c-1.44-.39-9.46.69-12.16,1-.64.07-1,.85-1.25,1.45-1.15,2.94-3.35,9.3-2.85,11.37,0,0,2.25.68,3,.31S895,326.19,894.54,324.64Z"/>
      <path class="cls-25" d="M901.62,319.94s1.77,9.76.75,12.2a20.31,20.31,0,0,1-3.6,5.08l12,4.28s4.06-13.93,2.26-15.42-5.91-7.31-7.76-7a36.76,36.76,0,0,0-4.14,1"/>
      <path class="cls-15" d="M914.7,310.7s3.81-.29,4.26-1.75a17.58,17.58,0,0,1-3.21-1.55c-.85-.67-1.82-3-5.82-3.65s-7.12.46-7.88,1.74-3.37,3.67-3.23,5.45,1.8,4.92,2.27,5.7.68.94.84,1a4.08,4.08,0,0,0,2.83.35,4.53,4.53,0,0,0,.74-1.41c.27-.85.59-2.53.24-2.78s-.23.52-.86.26-1.49-2.43-.51-3.29,2.58-.43,2.46.38,4-1.29,4.8-1.3S913.54,310.86,914.7,310.7Z"/>
      <path class="cls-26" d="M914.34,326s-6.23-5.78-7.74-6.09-3.93,0-4.15,1.05-.94,2.22.24,3.65c1,1.15,8.16,4.84,10.55,6.13.57.31,1.33-.12,1.86-.48,2.63-1.75,8.06-5.71,8.84-7.69,0,0-1.46-1.85-2.28-2S914.87,324.5,914.34,326Z"/>
      <path class="cls-20" d="M858.86,299.3s2.08,2.75,1.9,5-1.45,3.49-.56,3.65.65-.47.9.15-.93,4-2.38,4.63-7.07-.75-7.59-2.42a61,61,0,0,0-3.61-6.8l8.52-5Z"/>
      <path class="cls-20" d="M855.86,312.38s-.3.39.08,1.36-5,.1-5,.1a9.74,9.74,0,0,1-.18-2.93c.23-1,5.12,1,5.12,1.24"/>
      <path class="cls-21" d="M852.34,366.68a4.54,4.54,0,0,0-.54,1.85c0,.77,7.8,3.38,7.8,3.38s1.54-.67,1.28-1.8-3.09-3.56-3.83-3.88-.94.28-1.94-2-2.77,2.48-2.77,2.48"/>
      <path class="cls-20" d="M869.58,309.53a2.67,2.67,0,0,1,.21-2.16c.64-1.09,3.36-1.33,3.57-.22s.88,2.83-.45,2.91a2.36,2.36,0,0,0-1.89,1.26l-1.88-.89Z"/>
      <path class="cls-20" d="M840.85,329.58a2.68,2.68,0,0,0-.93,2c0,1.26,2.19,2.87,2.94,2s2.21-2,1.12-2.72a2.37,2.37,0,0,1-1-2.06l-2.07-.21Z"/>
      <path class="cls-21" d="M840.74,343.13a4.46,4.46,0,0,0-1.93-.05c-.73.24-1.26,8.41-1.26,8.41s1,1.32,2.07.78,2.64-3.91,2.76-4.7-.51-.83,1.47-2.4-3.11-2-3.11-2"/>
      <path class="cls-22" d="M862.54,330.7s6.32,10.36,6.07,11.56a12.46,12.46,0,0,1-2.79,4.6c-1,.81-22.47,2.25-23.81,2l-.37-6s13.06-.1,14.18-.52a3.61,3.61,0,0,0,2-2.77c.27-1.23-1.79-8.82-1.79-8.82l1-2.34s4.54.79,5.47,2.34"/>
      <path class="cls-23" d="M852,338.47s7,7.74,11.19,10.63c0,0-3.44,3.5-4.62,6.47-.77,2-5.77,7.61-3.41,9.35s3.4,1.69,3.4,1.69l3.22-3.78,7.83-12.39a3.5,3.5,0,0,0,0-3.7l-7.62-11.85a2,2,0,0,0-.85-.76l-8.6-3.94S849.14,334.24,852,338.47Z"/>
      <path class="cls-24" d="M843.77,320.63s8.43-1.05,9.64-2,2.54-3,1.86-3.86-1.1-2.15-2.95-2.16c-1.5,0-9,3.15-11.48,4.15-.6.24-.76,1.1-.83,1.73-.34,3.15-.8,9.85.22,11.73,0,0,2.36.06,3-.5S844.59,322,843.77,320.63Z"/>
      <path class="cls-25" d="M849.37,314.24s4.26,9,3.92,11.59a20.35,20.35,0,0,1-2.15,5.84l12.72,1s.27-14.5-1.85-15.47-7.62-5.51-9.33-4.73A37.46,37.46,0,0,0,849,314.5"/>
      <path class="cls-15" d="M859.58,301.91s3.6-1.28,3.65-2.81a17.71,17.71,0,0,1-3.5-.66c-1-.42-2.56-2.45-6.57-2s-6.76,2.31-7.16,3.74-2.29,4.42-1.69,6.1,3,4.28,3.68,4.91.9.73,1.07.76a4.16,4.16,0,0,0,2.84-.4,4.73,4.73,0,0,0,.34-1.56c0-.89-.09-2.6-.5-2.75s-.09.57-.76.48-2.08-2-1.35-3,2.37-1.09,2.47-.28,3.53-2.29,4.29-2.51S858.49,302.37,859.58,301.91Z"/>
      <path class="cls-26" d="M863.23,316.79s-7.52-4-9.06-3.86-3.8,1-3.73,2.1-.33,2.4,1.19,3.46c1.22.86,9.14,2.54,11.79,3.16.62.15,1.24-.46,1.67-.95,2.07-2.38,6.28-7.62,6.52-9.74,0,0-1.9-1.4-2.72-1.3S863.35,315.18,863.23,316.79Z"/>
      <path class="cls-27" d="M837.83,304.39s8.54,9.53,5.56,19.67S838.84,338,838.84,338s-34.11-12.07-36.45-6.95-5.9,61.53-.15,66.94c0,0-62-11.6-65.61-15.14s-5.91-61-1.67-73.43c3.29-9.67,9.38-32.28,39.26-33.37S835.87,296.51,837.83,304.39Z"/>
    </g>
  </g>
</svg>
